# xmcd
#
# Track frame offsets: 
#        150
#        18088
#        33964
#        48179
#        63488
#        83737
#        101902
#        115207
#        132509
#        144680
#
# Disc length: 2116 seconds
#
# Revision: 0
# Processed by: cddbd v1.5.2PL0 Copyright (c) Steve Scherf et al.
# Submitted via: ExactAudioCopy v1.0b4
#
DISCID=8408420a
DTITLE=Left Lane Cruiser - All Can You Eat !!
DYEAR=2009
DGENRE=Blues Rock
TTITLE0=Crackalacka
TTITLE1=Hillgrass Bluebilly
TTITLE2=Ol' Fashioned
TTITLE3=Hard Workin Man
TTITLE4=Black Lung
TTITLE5=Hard Luck
TTITLE6=Broke Ass Blues
TTITLE7=Putain !
TTITLE8=Poopdeflex
TTITLE9=Waynedale
EXTD=
EXTT0=
EXTT1=
EXTT2=
EXTT3=
EXTT4=
EXTT5=
EXTT6=
EXTT7=
EXTT8=
EXTT9=
PLAYORDER=
